#!OML:ASF F:\VICON\USERDATA\INSTALL\rory3\rory3.ASF
:FULLY-SPECIFIED
:DEGREES
702
root 2.41831 17.2972 -12.9399 168.986 -73.9604 210.646
lowerback -2.17305 3.74622 8.8392
upperback -13.7994 5.00285 6.54292
thorax -13.8484 1.37058 2.0514
lowerneck -8.54241 19.2757 14.8208
upperneck 16.2149 29.6428 -23.5308
head 12.9117 12.4647 -5.63756
rclavicle 1.98785e-015 9.38264e-014
rhumerus -53.4845 -23.6984 16.5697
rradius 20.9453
rwrist 15.7397
rhand -23.7415 18.421
rfingers 7.12502
rthumb 2.72701 -11.5413
lclavicle 1.98785e-015 9.38264e-014
lhumerus -50.5194 11.4646 1.56227
lradius 41.1837
lwrist -45.0171
lhand -38.3306 -5.23317
lfingers 7.12502
lthumb -11.3582 24.4392
rfemur -29.8035 3.46619 34.6906
rtibia 36.899
rfoot -1.24356 -24.5954
rtoes -18.431
lfemur -47.6079 17.7214 -27.268
ltibia 42.9329
lfoot -30.3733 27.4886
ltoes 7.34415
703
root 2.42115 17.2831 -12.9093 162.321 -76.3136 217.007
lowerback -2.01746 3.78796 9.09516
upperback -13.6205 5.13752 6.3287
thorax -13.6785 1.42846 1.63866
lowerneck -8.59511 19.3655 15.0051
upperneck 16.871 29.9705 -23.6217
head 13.3174 12.564 -5.61326
rclavicle 4.29375e-014 1.57437e-013
rhumerus -54.5617 -25.0828 18.7236
rradius 20.315
rwrist 17.7466
rhand -24.5505 19.6517
rfingers 7.12502
rthumb 1.94567 -10.3192
lclavicle 4.29375e-014 1.57437e-013
lhumerus -50.2054 11.2101 2.56615
lradius 41.0819
lwrist -44.4603
lhand -38.5566 -4.57934
lfingers 7.12502
lthumb -11.576 25.0809
rfemur -29.9105 2.75012 34.9997
rtibia 37.6703
rfoot -1.75464 -25.3513
rtoes -20.5094
lfemur -47.2176 17.4714 -26.7171
ltibia 42.3096
lfoot -32.1142 27.4912
ltoes 10.2527
704
root 2.41081 17.276 -12.9001 151.969 -78.5177 226.865
lowerback -1.93627 3.68714 9.17688
upperback -13.3146 5.06342 6.28292
thorax -13.3437 1.42901 1.52372
lowerneck -8.85077 19.3827 13.9894
upperneck 17.3661 30.0756 -23.0242
head 13.272 12.5546 -5.23964
rclavicle -3.4191e-014 -5.56597e-014
rhumerus -55.2468 -25.9673 20.272
rradius 19.8945
rwrist 19.2307
rhand -25.0719 20.0525
rfingers 7.12502
rthumb 1.44213 -9.9224
lclavicle -3.4191e-014 -5.56597e-014
lhumerus -49.8932 11.9593 2.92811
lradius 41.1457
lwrist -45.2609
lhand -38.206 -3.76271
lfingers 7.12502
lthumb -11.2379 25.9163
rfemur -29.5759 1.56374 35.5345
rtibia 38.1761
rfoot -3.07862 -26.2166
rtoes -20.2442
lfemur -46.9562 17.9277 -26.234
ltibia 42.119
lfoot -31.8843 27.8986
ltoes 9.40894
705
root 2.40667 17.2704 -12.8428 153.293 -81.5278 225.372
lowerback -2.25006 3.60199 7.01917
upperback -13.0332 4.83233 5.38994
thorax -12.837 1.57142 1.70599
lowerneck -8.88379 19.3631 13.7958
upperneck 17.5229 30.1122 -22.9921
head 13.3101 12.5602 -5.19473
rclavicle 4.77083e-015 5.56597e-014
rhumerus -55.7102 -25.7656 20.1421
rradius 20.0526
rwrist 18.9075
rhand -25.3596 19.6523
rfingers 7.12502
rthumb 1.1643 -10.3243
lclavicle 4.77083e-015 5.56597e-014
lhumerus -48.9788 12.9643 2.97535
lradius 39.7932
lwrist -45.8471
lhand -38.6542 -2.88812
lfingers 7.12502
lthumb -11.6702 26.7669
rfemur -30.1221 0.427303 33.0278
rtibia 38.7071
rfoot -4.51837 -26.6588
rtoes -16.9523
lfemur -47.3101 19.3301 -29.5301
ltibia 41.782
lfoot -30.0003 28.4521
ltoes 5.24519
706
root 2.39601 17.2552 -12.7557 148.647 -83.809 230.548
lowerback -3.13464 3.71993 6.45877
upperback -12.8793 4.84851 4.52248
thorax -12.0429 1.63312 1.08517
lowerneck -8.43204 19.4714 14.3968
upperneck 17.3028 30.3242 -23.4583
head 13.397 12.7165 -5.40441
rclavicle -1.55052e-014 -2.8625e-014
rhumerus -56.4921 -25.4099 19.6612
rradius 20.1889
rwrist 17.8226
rhand -25.8126 20.4545
rfingers 7.12502
rthumb 0.726711 -9.52397
lclavicle -1.55052e-014 -2.8625e-014
lhumerus -48.0571 13.5295 3.06256
lradius 38.6158
lwrist -45.1782
lhand -39.1207 -3.08141
lfingers 7.12502
lthumb -12.1201 26.5475
rfemur -31.0251 -0.956073 31.73
rtibia 38.9182
rfoot -4.81465 -26.6972
rtoes -16.0389
lfemur -48.6121 21.4305 -32.3314
ltibia 41.4414
lfoot -27.893 27.9372
ltoes 2.89349
707
root 2.40042 17.2269 -12.8154 108.936 -82.8965 268.995
lowerback -1.83404 3.42495 7.97846
upperback -12.5254 4.7453 5.11176
thorax -12.3916 1.47459 0.842436
lowerneck -7.77164 19.4946 15.2789
upperneck 17.5792 30.4894 -23.7787
head 13.6585 12.8653 -5.64536
rclavicle -1.35174e-014 -1.27222e-014
rhumerus -57.5434 -25.1272 19.9066
rradius 20.3896
rwrist 17.5997
rhand -26.0087 21.0766
rfingers 7.12502
rthumb 0.537304 -8.90244
lclavicle -1.35174e-014 -1.27222e-014
lhumerus -47.5217 12.9997 3.70946
lradius 38.4932
lwrist -44.1556
lhand -38.5205 -2.86581
lfingers 7.12502
lthumb -11.5412 26.7964
rfemur -29.414 -1.04429 34.9054
rtibia 38.8246
rfoot -6.46368 -28.793
rtoes -14.2602
lfemur -47.655 20.8634 -28.2799
ltibia 41.3378
lfoot -27.7126 28.7984
ltoes 5.0635
